<svg width="214" height="80" fill="none" xmlns="http://www.w3.org/2000/svg"><g clip-path="url(#clip0)" fill="#fff"><path fill-rule="evenodd" clip-rule="evenodd" d="M22.209 22.17h36.245v15.18c0 .247.002.514.004.798.024 3.142.064 8.433-2.429 12.546-3.385 5.687-9.6 10.043-15.649 10.567l-.049.005-.048-.005c-6.096-.523-12.312-4.88-15.697-10.57v-.001c-2.446-4.148-2.406-9.392-2.382-12.53.003-.29.005-.56.005-.81V22.17zm1.132 1.132V37.35c0 .253-.002.522-.004.805-.02 3.173-.052 8.1 2.223 11.96 3.224 5.416 9.116 9.508 14.771 10.014 5.61-.506 11.502-4.598 14.726-10.016l.003-.004c2.316-3.82 2.285-8.787 2.265-11.967l-.003-.792V23.3H23.34z"/><path d="M53.431 27.102H27.234v7.886l20.26 15.34-1.53 1.355-18.73-14.046v3.45c0 10.904 10.283 14.97 13.099 14.97 9.426-1.294 12.976-9.302 12.976-13.368l-17.873-13.43h3.244l14.751 11.089V27.103zm8.734-9.008h-.552v-.184h1.333v.184h-.551v1.654h-.23v-1.654zm2.616.827c0-.276-.046-.551-.046-.781-.046.23-.138.46-.23.69l-.321.873H64l-.276-.874a3.824 3.824 0 01-.183-.689c0 .23 0 .552-.046.827l-.046.782h-.23l.138-1.839h.321l.322.873c.092.23.138.414.184.598.046-.184.092-.368.184-.598l.276-.873h.321l.092 1.838h-.23l-.046-.827zm6.25 26.979c1.103.643 2.666 1.24 4.32 1.24 2.482 0 3.907-1.286 3.907-3.17 0-1.747-1.011-2.758-3.54-3.723-3.032-1.103-4.917-2.666-4.917-5.285 0-2.896 2.39-5.056 6.021-5.056 1.93 0 3.309.46 4.136.92l-.643 1.975a7.476 7.476 0 00-3.539-.873c-2.528 0-3.539 1.517-3.539 2.804 0 1.746 1.15 2.62 3.723 3.585 3.171 1.24 4.78 2.757 4.78 5.469 0 2.895-2.114 5.377-6.527 5.377-1.792 0-3.768-.505-4.78-1.195l.598-2.068zm25.506-5.837h-7.261v6.756h8.089v2.022H86.84V30.18h10.065v2.023h-7.63v5.882h7.262v1.977zm5.791 8.777V30.182h2.62l5.975 9.468c1.378 2.206 2.481 4.136 3.355 6.067l.046-.046c-.23-2.482-.276-4.78-.276-7.675V30.18h2.252v18.66h-2.436l-5.929-9.468c-1.287-2.068-2.528-4.228-3.493-6.25l-.092.046c.138 2.344.184 4.596.184 7.721v7.997h-2.206v-.046zM126 32.204h-5.699v-2.069h13.834v2.069h-5.699V48.84H126V32.204zm14.476-2.023v18.66h-2.39V30.18h2.39zm6.067 18.659V30.182h2.62l5.974 9.468c1.379 2.206 2.482 4.136 3.355 6.067l.046-.046c-.229-2.482-.275-4.78-.275-7.675V30.18h2.252v18.66h-2.436l-5.929-9.468c-1.287-2.068-2.528-4.228-3.493-6.25l-.092.046c.138 2.344.184 4.596.184 7.721v7.997h-2.206v-.046zm29.779-8.777h-7.261v6.756h8.089v2.022h-10.525V30.18h10.065v2.023h-7.675v5.882h7.261v1.977h.046zm5.791-9.882h2.39V46.82h7.997v2.022h-10.387V30.18z"/></g><defs><clipPath id="clip0"><path fill="#fff" transform="translate(22.18 17.91)" d="M0 0h170.326v43.34H0z"/></clipPath></defs></svg>

<svg data-v-c493b844="" width="169" height="169" viewBox="0 0 169 169" fill="none" xmlns="http://www.w3.org/2000/svg"><g data-v-c493b844="" filter="url(#filter0_i_14701_7597)"><path data-v-c493b844="" d="M140.841 146.334C175.027 114.973 177.316 61.8368 145.955 27.6511C114.594 -6.53459 61.4579 -8.82429 27.2722 22.5369C-6.91349 53.8981 -9.20318 107.034 22.158 141.22C53.5192 175.406 106.655 177.695 140.841 146.334Z" fill="url(#paint0_radial_14701_7597)"></path></g> <g data-v-c493b844="" opacity="0.5"><path data-v-c493b844="" d="M90.1877 60.7796L89.5725 61.7878L81.0629 93.546L81.2987 93.9537L98.3754 89.19L90.1877 60.7796Z" fill="white" fill-opacity="0.82"></path> <path data-v-c493b844="" d="M90.1881 60.7801L68.8922 81.2903L81.2991 93.9544L85.4294 78.5399L90.1881 60.7801Z" fill="white" fill-opacity="0.333"></path> <path data-v-c493b844="" d="M80.5509 96.7444L80.3102 96.917L77.2789 108.23L77.3183 108.809L97.6352 91.9874L80.5509 96.7444Z" fill="white" fill-opacity="0.82"></path> <path data-v-c493b844="" d="M77.3186 108.81L80.5512 96.7455L68.1431 84.0859L77.3186 108.81Z" fill="white" fill-opacity="0.333"></path> <path data-v-c493b844="" d="M81.299 93.9533L98.3754 89.1896L85.4292 78.5391L81.299 93.9533Z" fill="white"></path> <path data-v-c493b844="" d="M68.8921 81.2904L81.2989 93.9541L85.4291 78.5398L68.8921 81.2904Z" fill="white" fill-opacity="0.82"></path></g> <defs data-v-c493b844=""><filter data-v-c493b844="" id="filter0_i_14701_7597" x="0.0566406" y="0.435547" width="168" height="168" filterUnits="userSpaceOnUse" color-interpolation-filters="sRGB"><feFlood data-v-c493b844="" flood-opacity="0" result="BackgroundImageFix"></feFlood> <feBlend data-v-c493b844="" mode="normal" in="SourceGraphic" in2="BackgroundImageFix" result="shape"></feBlend> <feColorMatrix data-v-c493b844="" in="SourceAlpha" type="matrix" values="0 0 0 0 0 0 0 0 0 0 0 0 0 0 0 0 0 0 127 0" result="hardAlpha"></feColorMatrix> <feOffset data-v-c493b844=""></feOffset> <feGaussianBlur data-v-c493b844="" stdDeviation="23"></feGaussianBlur> <feComposite data-v-c493b844="" in2="hardAlpha" operator="arithmetic" k2="-1" k3="1"></feComposite> <feColorMatrix data-v-c493b844="" type="matrix" values="0 0 0 0 0.917667 0 0 0 0 0.683333 0 0 0 0 1 0 0 0 0.42 0"></feColorMatrix> <feBlend data-v-c493b844="" mode="normal" in2="shape" result="effect1_innerShadow_14701_7597"></feBlend></filter> <radialGradient data-v-c493b844="" id="paint0_radial_14701_7597" cx="0" cy="0" r="1" gradientUnits="userSpaceOnUse" gradientTransform="translate(-16.0508 62.8614) rotate(7.1653) scale(176.377 141.046)"><stop data-v-c493b844="" stop-color="#F9FDFF"></stop> <stop data-v-c493b844="" offset="0.828199" stop-color="#5B4BB9"></stop> <stop data-v-c493b844="" offset="1" stop-color="#386480"></stop></radialGradient></defs></svg>